<svg xmlns="http://www.w3.org/2000/svg" version="1.1" xmlns:xlink="http://www.w3.org/1999/xlink" xmlns:svgjs="http://svgjs.dev/svgjs" width="2000" height="2000" viewBox="0 0 2000 2000"><g transform="matrix(1,0,0,1,0,0)"><svg viewBox="0 0 280 280" data-background-color="#fafafa" preserveAspectRatio="xMidYMid meet" height="2000" width="2000" xmlns="http://www.w3.org/2000/svg" xmlns:xlink="http://www.w3.org/1999/xlink"><g id="tight-bounds" transform="matrix(1,0,0,1,0,0)"><svg viewBox="0 0 280 280" height="280" width="280"><g><svg viewBox="0 0 280 280" height="280" width="280"><g><svg viewBox="0 0 280 280" height="280" width="280"><g id="textblocktransform"><svg viewBox="0 0 280 280" height="280" width="280" id="textblock"><g><svg viewBox="0 0 280 280" height="280" width="280"><g transform="matrix(1,0,0,1,74.00336708925556,104.87949889973763)"><svg viewBox="0 0 131.99326582148888 70.24100220052476" height="70.24100220052476" width="131.99326582148888"><g id="icon-0"><svg xmlns="http://www.w3.org/2000/svg" xmlns:xlink="http://www.w3.org/1999/xlink" version="1.1" x="0" y="0" viewBox="2.973285520437858 26.305999999999997 93.38239982692139 49.694" enable-background="new 0 0 100 100" xml:space="preserve" height="70.24100220052476" width="131.99326582148888" class="icon-jxe-0" data-fill-palette-color="accent" id="jxe-0"><circle cx="49.677" cy="35.638" r="9.3" fill="#ffffff" data-fill-palette-color="accent"></circle><circle cx="77.467" cy="39.087" r="7.8" fill="#ffffff" data-fill-palette-color="accent"></circle><g fill="#5e844c" data-fill-palette-color="accent"><path d="M96.085 70.657L90.069 56.096C89.267 56.511 88.771 56.612 87.557 56.981 86.619 57.254 82.533 58.258 73.048 58.258 70.339 58.258 68.07 58.174 66.172 58.052V68.947A5.294 5.294 0 0 0 71.466 74.241H83.465C85.743 74.241 87.671 72.792 88.417 70.772L89.493 73.378A3.565 3.565 0 1 0 96.085 70.657" fill="#ffffff" data-fill-palette-color="accent"></path></g><circle cx="21.889" cy="39.087" r="7.8" fill="#ffffff" data-fill-palette-color="accent"></circle><g fill="#5e844c" data-fill-palette-color="accent"><path d="M3.271 70.657L9.286 56.096C10.088 56.511 10.583 56.612 11.798 56.981 12.736 57.254 16.823 58.258 26.307 58.258 29.016 58.258 31.285 58.174 33.183 58.052V68.947A5.294 5.294 0 0 1 27.889 74.241H15.889C13.611 74.241 11.683 72.792 10.938 70.772L9.862 73.378A3.566 3.566 0 1 1 3.271 70.657" fill="#ffffff" data-fill-palette-color="accent"></path></g><path d="M87.352 49S77.981 50.273 72.944 50.273C69.561 50.273 64.235 49.835 61.094 49.459 59.972 48.47 58.503 48 56.89 48H42.466C40.852 48 39.383 48.47 38.261 49.459 35.12 49.836 29.794 50.341 26.412 50.341 21.375 50.341 12.004 49.034 12.004 49.034A3.34 3.34 0 0 0 8.648 52.371C8.648 54.225 9.603 55.003 12.415 55.84 12.415 55.84 15.596 56.989 26.255 56.989 30.581 56.989 34 56.775 36 56.526V69.998C36 73.514 38.951 76 42.466 76H56.89C60.404 76 63 73.514 63 69.999V56.527C66 56.776 68.598 56.986 72.922 56.986 83.58 56.986 86.876 55.832 86.876 55.832 89.688 54.995 90.676 54.21 90.676 52.355 90.676 50.503 89.204 49 87.352 49" fill="#ffffff" data-fill-palette-color="accent"></path></svg></g></svg></g><g id="text-0"><path d="M28.878 111.562l-0.136 0.449-26.764-8.098 1.243-4.11c0.278-0.918 0.641-1.66 1.091-2.226 0.45-0.566 1.04-0.93 1.771-1.092 0.731-0.162 1.662-0.092 2.795 0.209v0c1.587 0.411 3.023 0.814 4.308 1.21 1.287 0.389 2.547 0.802 3.779 1.237v0c1.053 0.36 1.822 0.805 2.308 1.335 0.489 0.523 0.756 1.203 0.803 2.037v0l11.367 0.57-0.142 0.469-11.626-0.576c0.033-0.846-0.172-1.534-0.617-2.065-0.451-0.533-1.196-0.978-2.236-1.334v0c-1.227-0.427-2.497-0.839-3.81-1.236-1.317-0.405-2.733-0.806-4.248-1.202v0c-1.029-0.277-1.879-0.342-2.549-0.197-0.662 0.141-1.198 0.465-1.609 0.974-0.409 0.502-0.74 1.171-0.993 2.005v0l-1.107 3.661zM29.413 109.793l-0.133 0.44-10.668-3.228 0.576-1.902c0.042-0.14 0.082-0.271 0.119-0.392 0.032-0.129 0.065-0.248 0.097-0.356v0l11.478 0.583-0.139 0.458-11.039-0.585c-0.013 0.066-0.03 0.134-0.051 0.203-0.019 0.064-0.04 0.131-0.061 0.201v0l-0.445 1.472zM29.147 110.673l-0.136 0.449-25.971-7.858 0.975-3.221c0.226-0.746 0.517-1.342 0.875-1.791 0.365-0.446 0.846-0.728 1.446-0.846 0.607-0.122 1.378-0.06 2.311 0.188v0c1.464 0.38 2.866 0.77 4.206 1.169 1.332 0.403 2.603 0.822 3.814 1.258v0c1.002 0.345 1.7 0.782 2.097 1.312 0.388 0.535 0.525 1.241 0.413 2.118v0l11.986 0.559-0.139 0.459-11.933-0.564c-0.026 0.11-0.053 0.221-0.079 0.331-0.028 0.117-0.059 0.229-0.092 0.338v0l-0.832 2.753zM3.568 102.933l14.128 4.275 0.833-2.753c0.299-0.988 0.326-1.8 0.08-2.438-0.252-0.64-0.946-1.159-2.085-1.559v0c-1.214-0.423-2.481-0.834-3.8-1.234-1.317-0.405-2.717-0.801-4.2-1.187v0c-1.275-0.337-2.205-0.309-2.791 0.084-0.591 0.391-1.034 1.071-1.326 2.04v0zM18.127 104.334l-0.7 2.313-13.334-4.035 0.706-2.332c0.247-0.816 0.623-1.394 1.13-1.734 0.508-0.347 1.332-0.369 2.471-0.066v0c1.417 0.373 2.792 0.761 4.124 1.164 1.325 0.401 2.605 0.816 3.839 1.245v0c1.032 0.361 1.648 0.819 1.848 1.373 0.194 0.553 0.166 1.243-0.084 2.072zM4.627 102.294l12.541 3.795 0.567-1.874c0.216-0.714 0.235-1.296 0.059-1.746-0.169-0.454-0.691-0.832-1.567-1.131v0c-1.278-0.442-2.567-0.86-3.867-1.254-1.306-0.395-2.665-0.779-4.076-1.149v0c-0.997-0.267-1.709-0.26-2.135 0.021-0.424 0.275-0.74 0.757-0.949 1.445v0z" fill="#ffffff" data-fill-palette-color="primary"></path><path d="M46.12 75.361l-4.274 6.632-23.504-15.147 4.273-6.632 0.344 0.222-4.019 6.237 22.816 14.703 4.02-6.237zM44.735 74.468l-3.268 5.071-9.922-6.395 3.078-4.776 0.344 0.222-2.829 4.39 9.226 5.945 3.018-4.684zM45.423 74.912l-3.77 5.851-22.112-14.249 3.771-5.851 0.344 0.222-3.516 5.456 10.459 6.741 3.327-5.163 0.353 0.227-3.327 5.163 10.611 6.838 3.516-5.457zM33.582 67.697l-3.078 4.777-9.771-6.297 3.267-5.07 0.353 0.227-3.019 4.684 9.075 5.848 2.829-4.391z" fill="#ffffff" data-fill-palette-color="primary"></path><path d="M62.049 57.651l-0.354 0.308-18.364-21.087 3.216-2.801 8.69 7.516 11.226 9.637 0.317-0.276-9.96-10.859-7.487-8.444 0.354-0.308 7.487 8.444 10.2 11.166-0.941 0.82-19.939-17.133-2.553 2.223zM62.749 57.041l-0.354 0.308-7.863-9.03-10.11-11.365 2.049-1.784 19.977 17.1 1.401-1.22-10.359-11.544-7.426-8.497 0.354-0.309 7.426 8.497 10.547 11.898-1.981 1.725-20.007-17.074-1.416 1.233 9.899 11.032zM63.472 56.411l-0.346 0.302-7.924-8.977-9.711-10.68 0.912-0.793 19.96 17.127 2.523-2.197-18.114-20.801 0.346-0.302 18.364 21.087-3.201 2.788-9.185-7.932-10.709-9.24-0.301 0.262 9.462 10.379z" fill="#ffffff" data-fill-palette-color="primary"></path><path d="M94.323 36.793l-4.055 1.817-11.437-25.516 4.074-1.826c0.881-0.395 1.687-0.607 2.418-0.635 0.735-0.037 1.404 0.177 2.007 0.643 0.603 0.467 1.165 1.247 1.684 2.342v0c0.817 1.757 1.63 3.523 2.44 5.298 0.816 1.772 1.65 3.624 2.501 5.555 0.854 1.923 1.752 3.982 2.693 6.18v0c0.466 1.104 0.672 2.037 0.62 2.797-0.05 0.767-0.333 1.415-0.847 1.945-0.505 0.533-1.205 1-2.098 1.399zM79.427 13.275l11.102 24.77 3.627-1.626c0.608-0.272 1.114-0.576 1.518-0.91 0.413-0.331 0.716-0.715 0.907-1.151 0.189-0.442 0.256-0.95 0.203-1.525-0.05-0.583-0.239-1.25-0.568-2v0c-0.816-1.918-1.636-3.805-2.46-5.66-0.818-1.858-1.654-3.724-2.508-5.595-0.848-1.875-1.733-3.794-2.658-5.759v0c-0.47-1.015-0.982-1.734-1.536-2.157-0.548-0.426-1.152-0.625-1.812-0.599-0.657 0.032-1.38 0.225-2.17 0.579v0zM93.984 36.036l-3.207 1.438-10.759-24.004 3.226-1.446c0.729-0.327 1.385-0.5 1.966-0.52 0.585-0.014 1.121 0.173 1.608 0.56 0.484 0.396 0.935 1.044 1.353 1.943v0c0.664 1.417 1.316 2.821 1.954 4.213 0.636 1.386 1.267 2.777 1.893 4.175 0.626 1.397 1.252 2.81 1.877 4.237 0.625 1.427 1.258 2.887 1.898 4.38v0c0.402 0.929 0.583 1.708 0.545 2.339-0.041 0.624-0.266 1.148-0.675 1.572-0.408 0.424-0.968 0.795-1.679 1.113zM80.614 13.652l10.423 23.256 2.78-1.246c1.015-0.455 1.653-1.025 1.914-1.711 0.264-0.68 0.148-1.591-0.349-2.733v0c-0.864-1.977-1.703-3.881-2.517-5.712-0.805-1.828-1.629-3.666-2.471-5.513-0.837-1.85-1.719-3.786-2.646-5.807v0c-0.521-1.131-1.121-1.825-1.799-2.083-0.677-0.258-1.524-0.16-2.538 0.295v0zM93.649 35.289l-2.36 1.058-10.089-22.509 2.379-1.066c0.522-0.234 1.004-0.355 1.446-0.364 0.445-0.017 0.856 0.127 1.233 0.432 0.377 0.305 0.731 0.818 1.061 1.538v0c0.89 1.921 1.75 3.798 2.578 5.63 0.828 1.832 1.658 3.682 2.488 5.55 0.827 1.862 1.683 3.813 2.568 5.852v0c0.441 0.999 0.553 1.795 0.337 2.388-0.213 0.599-0.76 1.096-1.641 1.491zM81.791 14.032l9.746 21.744 1.941-0.87c0.492-0.221 0.855-0.478 1.087-0.772 0.242-0.291 0.361-0.643 0.358-1.058-0.009-0.412-0.139-0.904-0.389-1.478v0c-0.744-1.709-1.506-3.451-2.287-5.224-0.786-1.771-1.62-3.63-2.499-5.577-0.877-1.941-1.827-4.018-2.848-6.231v0c-0.412-0.888-0.868-1.424-1.367-1.609-0.496-0.179-1.09-0.113-1.783 0.197v0z" fill="#ffffff" data-fill-palette-color="primary"></path><path d="M129.779 27.698l-7.814 1.083-3.839-27.698 7.814-1.083 0.057 0.406-7.35 1.018 3.726 26.887 7.35-1.019zM129.553 26.065l-5.975 0.828-1.62-11.692 5.628-0.78 0.057 0.406-5.174 0.717 1.507 10.871 5.52-0.765zM129.666 26.877l-6.895 0.955-3.611-26.055 6.894-0.956 0.056 0.406-6.429 0.891 1.708 12.325 6.084-0.843 0.057 0.415-6.083 0.844 1.733 12.503 6.429-0.891zM127.416 13.194l-5.628 0.781-1.596-11.515 5.975-0.828 0.057 0.416-5.519 0.765 1.482 10.693 5.173-0.717z" fill="#ffffff" data-fill-palette-color="primary"></path><path d="M161.144 27.629l-7.01-0.996 10.591-23.419 0.173-1.217-8.829-1.255 0.058-0.405 9.284 1.32-0.242 1.7-10.304 22.956 6.338 0.901zM160.912 29.261l-9.017-1.282 0.237-1.671 10.328-22.983-6.624-0.941 0.059-0.416 7.306 1.039-10.624 23.435-0.17 1.196 8.562 1.217zM161.028 28.44l-8.097-1.151 0.097-0.682 10.806-23.722 0.028-0.198-7.91-1.124 0.058-0.405 8.374 1.19-0.102 0.722-10.811 23.68-0.028 0.198 7.643 1.087z" fill="#ffffff" data-fill-palette-color="primary"></path><path d="M189.392 38.58l-3.695-1.645 8.492-26.828 0.42 0.187-8.38 26.451 2.947 1.313 14.063-23.921 0.42 0.187zM189.052 37.576l-2.372-1.056 3.866-11.703 4.482-14.337 0.438 0.195-4.426 14.089-3.828 11.566 1.615 0.719 6.036-10.583 7.509-12.715 0.438 0.195-7.647 12.927zM188.684 36.56l-1.003-0.447 3.81-11.356 4.431-13.878 0.429 0.19-4.399 13.685-3.775 11.153 0.328 0.146 5.755-10.271 7.236-12.421 0.42 0.187-7.35 12.578z" fill="#ffffff" data-fill-palette-color="primary"></path><path d="M218.024 57.72l-6.068-5.041 17.87-21.508 6.068 5.042-0.262 0.315-5.707-4.742-17.346 20.878 5.707 4.741zM219.077 56.453l-4.639-3.855 7.544-9.079 4.37 3.631-0.262 0.315-4.017-3.338-7.014 8.442 4.287 3.561zM218.554 57.083l-5.354-4.448 16.81-20.233 5.354 4.448-0.261 0.315-4.993-4.148-7.952 9.571 4.724 3.925-0.268 0.322-4.724-3.925-8.067 9.71 4.993 4.148zM227.144 46.198l-4.371-3.631 7.429-8.941 4.639 3.854-0.268 0.323-4.286-3.561-6.899 8.303 4.017 3.338z" fill="#ffffff" data-fill-palette-color="primary"></path><path d="M235.687 79.011v0c-0.861-1.258-1.226-2.388-1.095-3.388 0.134-0.995 0.888-1.974 2.261-2.938v0c1.344-0.936 2.802-1.953 4.374-3.052 1.575-1.093 3.217-2.225 4.926-3.393 1.704-1.165 3.425-2.334 5.163-3.508 1.739-1.173 3.429-2.309 5.073-3.409v0l0.265 0.388c-1.495 0.998-3.093 2.071-4.793 3.217-1.7 1.147-3.424 2.318-5.171 3.513-1.742 1.191-3.428 2.353-5.058 3.484-1.63 1.131-3.124 2.173-4.481 3.125v0c-1.207 0.842-1.908 1.704-2.102 2.587-0.191 0.889 0.129 1.94 0.96 3.155v0c0.831 1.214 1.693 1.891 2.586 2.03 0.89 0.133 1.948-0.207 3.173-1.021v0c1.352-0.901 2.823-1.887 4.414-2.958 1.59-1.071 3.24-2.192 4.949-3.361 1.709-1.169 3.423-2.349 5.14-3.54 1.722-1.186 3.388-2.346 5-3.48v0l0.265 0.387c-1.967 1.37-4.06 2.821-6.277 4.354-2.224 1.537-4.468 3.072-6.735 4.606-2.262 1.539-4.437 3.006-6.524 4.402v0c-1.416 0.936-2.609 1.28-3.577 1.031-0.97-0.24-1.882-0.983-2.736-2.231zM236.33 78.572v0c-0.695-1.017-0.982-1.925-0.86-2.727 0.12-0.792 0.759-1.592 1.916-2.399v0c1.483-1.039 3.023-2.108 4.618-3.207 1.592-1.105 3.217-2.225 4.877-3.36 1.66-1.135 3.331-2.27 5.014-3.406 1.68-1.141 3.352-2.269 5.018-3.383v0l0.26 0.379c-1.546 1.041-3.158 2.128-4.837 3.26-1.684 1.135-3.374 2.284-5.072 3.445-1.704 1.165-3.368 2.311-4.992 3.438-1.625 1.127-3.167 2.198-4.627 3.213v0c-1.026 0.718-1.604 1.423-1.734 2.117-0.127 0.7 0.12 1.503 0.741 2.41v0c0.616 0.901 1.272 1.417 1.965 1.547 0.689 0.134 1.556-0.149 2.602-0.848v0c1.473-0.983 3.013-2.016 4.62-3.099 1.607-1.083 3.251-2.199 4.932-3.349 1.676-1.146 3.354-2.302 5.034-3.467 1.68-1.165 3.327-2.312 4.942-3.441v0l0.265 0.388c-1.544 1.08-3.152 2.196-4.824 3.348-1.663 1.154-3.341 2.309-5.034 3.466-1.693 1.158-3.359 2.289-4.998 3.395-1.636 1.111-3.193 2.16-4.672 3.146v0c-1.165 0.773-2.142 1.078-2.93 0.916-0.783-0.166-1.524-0.76-2.224-1.782zM236.973 78.132v0c-0.534-0.78-0.739-1.47-0.617-2.07 0.122-0.6 0.646-1.22 1.57-1.861v0c1.776-1.247 3.756-2.622 5.94-4.123 2.189-1.505 4.446-3.053 6.77-4.642 2.328-1.584 4.595-3.111 6.802-4.579v0l0.259 0.379c-1.577 1.055-3.151 2.115-4.721 3.18-1.568 1.056-3.152 2.132-4.751 3.226-1.599 1.094-3.227 2.216-4.885 3.365-1.667 1.148-3.383 2.342-5.149 3.582v0c-0.789 0.556-1.252 1.082-1.388 1.578-0.135 0.487 0.029 1.069 0.492 1.745v0c0.459 0.67 0.939 1.031 1.442 1.083 0.508 0.048 1.165-0.196 1.969-0.73v0c2.512-1.67 4.846-3.234 7.002-4.692 2.152-1.464 4.244-2.899 6.276-4.305 2.031-1.405 4.111-2.852 6.239-4.339v0l0.259 0.379c-1.463 1.033-3.035 2.132-4.714 3.297-1.683 1.159-3.393 2.333-5.13 3.52-1.737 1.188-3.428 2.341-5.075 3.459-1.656 1.117-3.187 2.139-4.592 3.068v0c-0.943 0.637-1.716 0.899-2.318 0.787-0.598-0.107-1.158-0.543-1.68-1.307z" fill="#ffffff" data-fill-palette-color="primary"></path><path d="M248.767 104.813l-0.153-0.475 10.265-1.088 4.211-0.437 4.251-2.411 7.95-4.446 0.153 0.476-7.766 4.302-4.295 2.405 0.497 1.55 4.88-0.578 8.82-1.013 0.15 0.466-9.051 1.013-4.857 0.518-3.685 2.083-8.981 5.091-0.149-0.466 8.742-4.92 3.763-2.066-0.505-1.579-4.273 0.478zM249.062 105.736l-0.143-0.447 9.643-1.161 4.162-0.495 0.326 1.018-3.677 2.007-8.525 4.651-0.146-0.457 8.302-4.527 3.569-1.888-0.119-0.371-4.002 0.538zM248.477 103.91l-0.149-0.466 14.479-1.515 12.192-6.886 0.149 0.466-12.198 6.867zM251.44 113.154l-0.147-0.457 12.663-7.183 13.917-1.503 0.149 0.466-13.92 1.493zM264.178 104.31l-0.338-1.056 4.138-2.207 7.615-4.149 0.146 0.456-7.475 4.032-3.94 2.07 0.125 0.39 4.41-0.606 8.426-1.064 0.146 0.456-8.612 1.04z" fill="#ffffff" data-fill-palette-color="primary"></path><path d="M3.372 143.462c0-5.899 4.782-10.682 10.682-10.681 5.899 0 10.682 4.782 10.681 10.681 0 5.899-4.782 10.682-10.681 10.682-5.899 0-10.682-4.782-10.682-10.682z" fill="#ffffff" data-fill-palette-color="primary"></path><path d="M255.038 143.462c0-5.899 4.782-10.682 10.682-10.681 5.899 0 10.682 4.782 10.681 10.681 0 5.899-4.782 10.682-10.681 10.682-5.899 0-10.682-4.782-10.682-10.682z" fill="#ffffff" data-fill-palette-color="primary"></path></g><g id="text-1"><path d="M8.805 181.436l-0.136-0.449 26.764-8.098 1.244 4.11c0.278 0.918 0.386 1.737 0.326 2.458-0.06 0.721-0.349 1.351-0.868 1.89-0.518 0.539-1.333 0.998-2.443 1.375v0c-1.548 0.538-2.967 0.999-4.256 1.382-1.287 0.389-2.564 0.745-3.83 1.065v0c-1.076 0.284-1.963 0.34-2.662 0.169-0.697-0.165-1.296-0.582-1.797-1.251v0l-9.777 5.828-0.142-0.469 9.996-5.966c0.441 0.722 0.994 1.181 1.658 1.376 0.671 0.194 1.538 0.15 2.6-0.129v0c1.258-0.325 2.543-0.686 3.856-1.084 1.321-0.393 2.722-0.844 4.202-1.354v0c1.01-0.34 1.753-0.757 2.231-1.249 0.473-0.484 0.739-1.051 0.799-1.703 0.062-0.645-0.033-1.385-0.285-2.219v0l-1.108-3.661zM9.34 183.205l-0.133-0.44 10.667-3.228 0.576 1.902c0.042 0.14 0.082 0.271 0.118 0.392 0.045 0.126 0.084 0.242 0.117 0.351v0l-9.876 5.878-0.139-0.458 9.512-5.633c-0.026-0.062-0.049-0.128-0.07-0.198-0.019-0.064-0.04-0.131-0.061-0.201v0l-0.445-1.472zM9.074 182.325l-0.136-0.449 25.971-7.858 0.974 3.221c0.226 0.746 0.314 1.404 0.264 1.976-0.056 0.573-0.301 1.075-0.734 1.505-0.438 0.438-1.114 0.813-2.028 1.125v0c-1.429 0.495-2.812 0.948-4.148 1.36-1.332 0.403-2.622 0.759-3.872 1.067v0c-1.025 0.268-1.849 0.292-2.472 0.07-0.619-0.23-1.125-0.741-1.518-1.534v0l-10.285 6.179-0.139-0.458 10.243-6.146c-0.039-0.106-0.078-0.213-0.117-0.32-0.041-0.113-0.078-0.223-0.111-0.331v0l-0.833-2.753zM34.653 174.586l-14.128 4.274 0.833 2.753c0.299 0.988 0.727 1.679 1.285 2.074 0.564 0.393 1.43 0.44 2.599 0.142v0c1.245-0.321 2.527-0.681 3.846-1.08 1.321-0.393 2.706-0.84 4.154-1.341v0c1.248-0.426 2.007-0.965 2.276-1.617 0.275-0.654 0.266-1.465-0.027-2.433v0zM21.759 181.492l-0.7-2.313 13.335-4.035 0.705 2.332c0.247 0.816 0.254 1.506 0.022 2.07-0.231 0.571-0.904 1.046-2.021 1.425v0c-1.387 0.475-2.746 0.914-4.078 1.318-1.325 0.401-2.62 0.765-3.884 1.092v0c-1.059 0.272-1.825 0.232-2.3-0.118-0.468-0.352-0.828-0.942-1.079-1.771zM34.125 175.705l-12.541 3.795 0.567 1.873c0.216 0.714 0.522 1.209 0.919 1.485 0.392 0.285 1.036 0.309 1.932 0.073v0c1.309-0.34 2.614-0.707 3.913-1.1 1.306-0.395 2.65-0.83 4.03-1.303v0c0.978-0.331 1.566-0.731 1.765-1.202 0.2-0.464 0.197-1.04-0.012-1.728v0z" fill="#ffffff" data-fill-palette-color="secondary"></path><path d="M28.491 222.924l-4.273-6.632 23.504-15.147 4.274 6.632-0.344 0.222-4.02-6.238-22.816 14.704 4.02 6.237zM29.876 222.031l-3.267-5.07 9.922-6.394 3.078 4.776-0.344 0.222-2.829-4.39-9.226 5.945 3.019 4.684zM29.188 222.475l-3.77-5.851 22.111-14.249 3.77 5.851-0.344 0.222-3.516-5.457-10.46 6.74 3.327 5.163-0.352 0.227-3.327-5.162-10.611 6.837 3.516 5.457zM40.65 214.672l-3.078-4.776 9.771-6.297 3.268 5.07-0.353 0.228-3.018-4.685-9.075 5.848 2.83 4.39z" fill="#ffffff" data-fill-palette-color="secondary"></path><path d="M48.276 245.089l-0.354-0.308 18.364-21.087 3.216 2.8-6.251 9.641-8.003 12.444 0.317 0.275 9.387-11.357 7.336-8.576 0.354 0.308-7.336 8.576-9.658 11.638-0.942-0.82 14.231-22.104-2.553-2.223zM48.976 245.699l-0.354-0.308 7.864-9.03 9.868-11.575 2.049 1.784-14.193 22.137 1.4 1.22 10.013-11.847 7.396-8.523 0.354 0.308-7.396 8.524-10.336 12.081-1.981-1.725 14.163-22.163-1.416-1.233-9.567 11.32zM49.699 246.328l-0.346-0.301 7.803-9.082 9.244-11.086 0.911 0.794-14.222 22.124 2.523 2.197 18.115-20.8 0.346 0.301-18.364 21.087-3.201-2.787 6.595-10.188 7.681-11.877-0.301-0.262-8.98 10.798z" fill="#ffffff" data-fill-palette-color="secondary"></path><path d="M85.746 269.269l-4.056-1.817 11.437-25.517 4.074 1.826c0.881 0.395 1.575 0.856 2.083 1.382 0.517 0.523 0.802 1.166 0.855 1.927 0.053 0.761-0.156 1.699-0.627 2.816v0c-0.768 1.779-1.545 3.561-2.331 5.346-0.78 1.788-1.607 3.643-2.482 5.563-0.867 1.917-1.807 3.958-2.821 6.123v0c-0.514 1.083-1.073 1.857-1.677 2.324-0.606 0.473-1.277 0.693-2.015 0.662-0.734-0.023-1.548-0.234-2.44-0.635zM93.388 242.501l-11.102 24.769 3.627 1.626c0.608 0.272 1.171 0.448 1.69 0.527 0.522 0.088 1.01 0.059 1.462-0.089 0.455-0.153 0.88-0.441 1.274-0.863 0.402-0.425 0.774-1.01 1.114-1.754v0c0.889-1.885 1.751-3.753 2.588-5.604 0.843-1.848 1.679-3.713 2.508-5.595 0.835-1.88 1.679-3.818 2.53-5.815v0c0.445-1.026 0.641-1.887 0.588-2.582-0.047-0.692-0.3-1.276-0.758-1.752-0.461-0.469-1.086-0.881-1.876-1.234v0zM86.085 268.513l-3.208-1.438 10.759-24.004 3.226 1.446c0.729 0.327 1.295 0.701 1.697 1.122 0.4 0.427 0.617 0.951 0.652 1.573 0.026 0.625-0.157 1.392-0.551 2.303v0c-0.616 1.439-1.23 2.859-1.845 4.262-0.611 1.397-1.23 2.794-1.856 4.191-0.626 1.397-1.264 2.804-1.914 4.22-0.649 1.416-1.318 2.86-2.007 4.332v0c-0.426 0.918-0.887 1.572-1.383 1.962-0.493 0.384-1.034 0.565-1.622 0.543-0.588-0.023-1.237-0.194-1.948-0.512zM93.897 243.637l-10.424 23.256 2.779 1.246c1.015 0.455 1.865 0.551 2.552 0.29 0.684-0.255 1.286-0.948 1.807-2.079v0c0.9-1.96 1.764-3.853 2.589-5.679 0.829-1.817 1.653-3.655 2.471-5.514 0.824-1.856 1.682-3.802 2.574-5.839v0c0.497-1.142 0.617-2.051 0.358-2.729-0.258-0.677-0.894-1.244-1.909-1.698v0zM86.42 267.766l-2.361-1.058 10.089-22.509 2.379 1.066c0.522 0.234 0.934 0.513 1.233 0.837 0.309 0.321 0.475 0.723 0.498 1.208 0.023 0.485-0.124 1.09-0.441 1.816v0c-0.842 1.943-1.671 3.833-2.487 5.67-0.816 1.837-1.645 3.687-2.488 5.55-0.839 1.856-1.726 3.794-2.659 5.812v0c-0.453 0.994-0.972 1.607-1.559 1.841-0.589 0.239-1.324 0.162-2.204-0.233zM94.396 244.769l-9.746 21.744 1.941 0.87c0.492 0.221 0.925 0.32 1.3 0.298 0.378-0.013 0.72-0.159 1.028-0.437 0.301-0.281 0.583-0.706 0.844-1.274v0c0.781-1.693 1.573-3.421 2.378-5.183 0.798-1.765 1.632-3.624 2.5-5.577 0.865-1.947 1.784-4.037 2.756-6.272v0c0.388-0.899 0.485-1.595 0.292-2.091-0.197-0.489-0.641-0.889-1.334-1.2v0z" fill="#ffffff" data-fill-palette-color="secondary"></path><path d="M126.9 280l-7.814-1.083 3.838-27.698 7.815 1.083-0.056 0.406-7.35-1.019-3.726 26.887 7.349 1.018zM127.126 278.368l-5.974-0.828 1.62-11.693 5.629 0.781-0.056 0.405-5.174-0.717-1.507 10.871 5.52 0.765zM127.014 279.179l-6.895-0.956 3.612-26.055 6.894 0.955-0.056 0.406-6.43-0.891-1.708 12.325 6.084 0.843-0.058 0.416-6.084-0.843-1.733 12.503 6.43 0.891zM128.571 265.401l-5.629-0.78 1.596-11.514 5.975 0.828-0.058 0.415-5.519-0.765-1.482 10.693 5.173 0.717z" fill="#ffffff" data-fill-palette-color="secondary"></path><path d="M163.631 276.795l-7.01 0.997 3.646-25.443-0.173-1.216-8.829 1.255-0.057-0.406 9.284-1.319 0.241 1.7-3.498 24.918 6.337-0.901zM163.863 278.427l-9.017 1.282-0.237-1.671 3.514-24.951-6.625 0.942-0.059-0.415 7.307-1.039-3.673 25.467 0.17 1.197 8.563-1.218zM163.747 277.606l-8.098 1.151-0.097-0.682 3.768-25.793-0.028-0.198-7.91 1.124-0.058-0.405 8.375-1.19 0.102 0.721-3.783 25.755 0.028 0.198 7.643-1.086z" fill="#ffffff" data-fill-palette-color="secondary"></path><path d="M197.923 267.503l-3.695 1.645-14.258-24.261 0.42-0.186 14.054 23.925 2.946-1.313-8.37-26.455 0.42-0.187zM196.949 267.084l-2.372 1.056-6.111-10.703-7.656-12.923 0.438-0.195 7.509 12.715 6.036 10.583 1.615-0.719-3.828-11.566-4.426-14.089 0.438-0.195 4.491 14.333zM195.948 266.677l-1.003 0.447-5.891-10.43-7.35-12.578 0.429-0.191 7.227 12.425 5.764 10.267 0.328-0.146-3.784-11.149-4.39-13.689 0.42-0.186 4.43 13.878z" fill="#ffffff" data-fill-palette-color="secondary"></path><path d="M231.427 245.335l-6.069 5.041-17.869-21.507 6.068-5.042 0.262 0.315-5.707 4.742 17.346 20.878 5.707-4.742zM230.374 244.067l-4.64 3.855-7.543-9.079 4.37-3.632 0.262 0.315-4.017 3.338 7.013 8.442 4.287-3.561zM230.897 244.697l-5.354 4.448-16.81-20.232 5.354-4.448 0.261 0.315-4.992 4.148 7.952 9.571 4.724-3.925 0.268 0.322-4.724 3.925 8.066 9.709 4.993-4.148zM221.77 234.259l-4.371 3.631-7.428-8.941 4.639-3.854 0.268 0.322-4.286 3.561 6.899 8.304 4.017-3.338z" fill="#ffffff" data-fill-palette-color="secondary"></path><path d="M253.393 220.023v0c-0.861 1.258-1.781 2.008-2.76 2.25-0.976 0.236-2.162-0.112-3.559-1.043v0c-1.359-0.914-2.836-1.903-4.43-2.969-1.59-1.071-3.24-2.192-4.948-3.361-1.704-1.165-3.417-2.345-5.141-3.54-1.724-1.195-3.396-2.359-5.016-3.491v0l0.265-0.388c1.472 1.031 3.051 2.131 4.736 3.3 1.685 1.169 3.401 2.351 5.149 3.546 1.742 1.191 3.436 2.342 5.08 3.451 1.645 1.109 3.157 2.123 4.537 3.042v0c1.222 0.82 2.28 1.16 3.174 1.021 0.897-0.144 1.761-0.824 2.592-2.038v0c0.831-1.214 1.149-2.263 0.954-3.146-0.198-0.878-0.899-1.74-2.102-2.588v0c-1.33-0.934-2.782-1.947-4.357-3.04-1.575-1.093-3.217-2.225-4.927-3.394-1.709-1.169-3.43-2.338-5.163-3.507-1.729-1.175-3.415-2.307-5.056-3.398v0l0.265-0.387c1.99 1.337 4.101 2.76 6.334 4.272 2.239 1.515 4.483 3.05 6.734 4.606 2.255 1.55 4.411 3.045 6.468 4.484v0c1.386 0.98 2.139 1.967 2.258 2.96 0.129 0.991-0.234 2.111-1.087 3.358zM252.75 219.583v0c-0.695 1.017-1.438 1.614-2.229 1.791-0.781 0.175-1.758-0.13-2.931-0.916v0c-1.506-1.006-3.06-2.053-4.663-3.141-1.607-1.083-3.24-2.192-4.899-3.327-1.66-1.135-3.324-2.281-4.992-3.438-1.672-1.152-3.33-2.302-4.973-3.45v0l0.259-0.379c1.531 1.063 3.128 2.172 4.792 3.325 1.669 1.157 3.352 2.317 5.049 3.479 1.704 1.165 3.375 2.3 5.015 3.405 1.64 1.105 3.197 2.154 4.672 3.147v0c1.041 0.696 1.908 0.978 2.602 0.848 0.698-0.136 1.357-0.657 1.977-1.564v0c0.616-0.901 0.859-1.699 0.729-2.393-0.125-0.69-0.703-1.396-1.734-2.117v0c-1.45-1.016-2.972-2.077-4.563-3.182-1.592-1.105-3.228-2.232-4.91-3.382-1.676-1.146-3.361-2.291-5.056-3.434-1.695-1.143-3.361-2.262-4.998-3.358v0l0.265-0.387c1.566 1.047 3.19 2.141 4.869 3.282 1.678 1.132 3.363 2.276 5.056 3.433 1.693 1.158 3.351 2.3 4.976 3.428 1.628 1.122 3.171 2.193 4.626 3.212v0c1.143 0.806 1.781 1.606 1.916 2.4 0.129 0.79-0.156 1.696-0.855 2.718zM252.107 219.143v0c-0.534 0.78-1.102 1.222-1.705 1.326-0.603 0.104-1.371-0.159-2.304-0.789v0c-1.807-1.203-3.805-2.55-5.996-4.04-2.196-1.494-4.457-3.036-6.781-4.626-2.321-1.595-4.565-3.155-6.734-4.678v0l0.26-0.38c1.555 1.088 3.114 2.17 4.676 3.247 1.553 1.078 3.129 2.164 4.728 3.258 1.599 1.094 3.235 2.205 4.908 3.332 1.674 1.137 3.409 2.304 5.204 3.5v0c0.804 0.534 1.463 0.774 1.975 0.721 0.503-0.051 0.985-0.415 1.448-1.091v0c0.459-0.67 0.621-1.249 0.486-1.736-0.14-0.491-0.605-1.015-1.394-1.571v0c-2.467-1.736-4.771-3.344-6.912-4.824-2.145-1.475-4.24-2.904-6.287-4.288-2.046-1.383-4.149-2.797-6.307-4.24v0l0.26-0.38c1.493 0.989 3.087 2.055 4.781 3.198 1.691 1.148 3.404 2.316 5.141 3.504 1.737 1.188 3.424 2.346 5.064 3.476 1.641 1.139 3.149 2.194 4.525 3.167v0c0.936 0.648 1.46 1.273 1.573 1.875 0.117 0.596-0.086 1.276-0.609 2.039z" fill="#ffffff" data-fill-palette-color="secondary"></path><path d="M268.738 188.512l-0.152 0.475-8.985-5.081-3.681-2.093-4.86-0.508-9.054-1.004 0.152-0.475 8.82 1.012 4.892 0.54 0.497-1.55-4.307-2.366-7.765-4.303 0.149-0.466 7.954 4.437 4.253 2.401 4.209 0.447 10.267 1.078-0.149 0.466-9.974-1.078-4.263-0.507-0.506 1.579 3.754 2.095zM269.034 187.589l-0.144 0.447-8.521-4.66-3.674-2.017 0.326-1.018 4.159 0.505 9.64 1.17-0.147 0.457-9.387-1.142-4.001-0.538-0.119 0.371 3.569 1.888zM268.448 189.415l-0.149 0.466-12.663-7.183-13.923-1.484 0.15-0.466 13.917 1.503zM271.411 180.171l-0.147 0.457-14.479-1.516-12.198-6.866 0.15-0.466 12.195 6.876zM255.905 179.963l-0.339 1.055-4.649-0.609-8.609-1.049 0.146-0.457 8.426 1.065 4.41 0.605 0.124-0.39-3.94-2.07-7.475-4.031 0.146-0.457 7.613 4.159z" fill="#ffffff" data-fill-palette-color="secondary"></path></g></svg></g></svg></g></svg></g></svg></g><defs></defs></svg><rect width="280" height="280" fill="none" stroke="none" visibility="hidden"></rect></g></svg></g></svg>